<?xml version="1.0" encoding="UTF-8" standalone="no"?>
<!DOCTYPE svg PUBLIC "-//W3C//DTD SVG 1.0//EN" "http://www.w3.org/TR/2001/REC-SVG-20010904/DTD/svg10.dtd">
<svg xmlns="http://www.w3.org/2000/svg" width="456" height="328">
<style type="text/css">
.brush0 { fill: rgb(255,255,255); }
.pen0 { stroke: rgb(0,0,0); stroke-width: 1; stroke-linejoin: round; }
.font0 { font-size: 11px; font-family: "MS Sans Serif"; }
.pen1 { stroke: rgb(0,0,0); stroke-width: 7; stroke-linejoin: round; }
.brush1 { fill: none; }
.font1 { font-weight: bold; font-size: 16px; font-family: System, sans-serif; }
</style>
<g>
<line stroke="#000" stroke-width="3" stroke-linejoin="round" fill="none" x1="140" x2="268" y1="132" y2="132"/>
<line stroke="#000" stroke-width="3" stroke-linejoin="round" fill="none" x1="268" x2="268" y1="132" y2="260"/>
<line stroke="#000" stroke-width="3" stroke-linejoin="round" fill="none" x1="268" x2="140" y1="260" y2="260"/>
<line stroke="#000" stroke-width="3" stroke-linejoin="round" fill="none" x1="12" x2="140" y1="260" y2="260"/>
<line stroke="#000" stroke-width="3" stroke-linejoin="round" fill="none" x1="332" x2="396" y1="228" y2="228"/>
<line stroke="#000" stroke-width="3" stroke-linejoin="round" fill="none" x1="364" x2="364" y1="164" y2="228"/>
<circle stroke="#000" stroke-width="3" stroke-linejoin="round" cx="364.0" cy="196.0" fill="none" r="64.0"/>
<path stroke="#000" stroke-width="3" stroke-linejoin="round" d="M 331.59009742330267,99.59009742330268 A 22.5,22.5 0 0 0 332.0948021125589,131.89908162211472" fill="none"/>
<path stroke="#000" stroke-width="3" stroke-linejoin="round" d="M 363.59009742330267,99.59009742330268 A 22.5,22.5 0 0 0 364.0948021125589,131.89908162211472" fill="none"/>
<path stroke="#000" stroke-width="3" stroke-linejoin="round" d="M 395.59009742330267,99.59009742330268 A 22.5,22.5 0 0 0 396.0948021125589,131.89908162211472" fill="none"/>
<line stroke="#000" stroke-width="3" stroke-linejoin="round" fill="none" x1="444" x2="412" y1="68" y2="100"/>
<line stroke="#000" stroke-width="3" stroke-linejoin="round" fill="none" x1="412" x2="444" y1="100" y2="132"/>
</g>
</svg>
