<?xml version="1.0" encoding="UTF-8" standalone="no"?>
<!DOCTYPE svg PUBLIC "-//W3C//DTD SVG 1.0//EN" "http://www.w3.org/TR/2001/REC-SVG-20010904/DTD/svg10.dtd">
<svg xmlns="http://www.w3.org/2000/svg" width="248" height="328">
<style type="text/css">
.brush0 { fill: rgb(255,255,255); }
.pen0 { stroke: rgb(0,0,0); stroke-width: 1; stroke-linejoin: round; }
.font0 { font-size: 11px; font-family: "MS Sans Serif"; }
.pen1 { stroke: rgb(0,0,0); stroke-width: 7; stroke-linejoin: round; }
.brush1 { fill: none; }
.brush2 { fill: rgb(0,0,0); }
.font1 { font-weight: bold; font-size: 16px; font-family: System, sans-serif; }
</style>
<g>
<circle stroke="#000" stroke-width="3" stroke-linejoin="round" cx="44.0" cy="196.0" fill="none" r="32.0"/>
<line stroke="#000" stroke-width="3" stroke-linejoin="round" fill="none" x1="12" x2="76" y1="260" y2="260"/>
<ellipse class="pen1 brush1" cx="44" cy="196" rx="1" ry="1"/>
<path stroke="#000" stroke-width="3" stroke-linejoin="round" d="M 169.3128047094055,268.8752031396037 A 16.0,16.0 0 0 0 172.0,260.0" fill="none"/>
<ellipse class="pen1 brush2" cx="168" cy="259" rx="3" ry="3"/>
<line stroke="#000" stroke-width="3" stroke-linejoin="round" fill="none" x1="124" x2="124" y1="196" y2="260"/>
<line stroke="#000" stroke-width="3" stroke-linejoin="round" fill="none" x1="108" x2="140" y1="260" y2="260"/>
<line stroke="#000" stroke-width="3" stroke-linejoin="round" fill="none" x1="108" x2="124" y1="212" y2="196"/>
<path stroke="#000" stroke-width="3" stroke-linejoin="round" d="M 236.0,212.0 A 16.0,16.0 0 1 0 204.0,212.0" fill="none"/>
<path stroke="#000" stroke-width="3" stroke-linejoin="round" d="M 204.0,244.0 A 16.0,16.0 0 0 0 236.0,244.0" fill="none"/>
<line stroke="#000" stroke-width="3" stroke-linejoin="round" fill="none" x1="204" x2="204" y1="212" y2="244"/>
<line stroke="#000" stroke-width="3" stroke-linejoin="round" fill="none" x1="236" x2="236" y1="212" y2="244"/>
</g>
</svg>
