<?xml version="1.0" encoding="UTF-8" standalone="no"?>
<!DOCTYPE svg PUBLIC "-//W3C//DTD SVG 1.0//EN" "http://www.w3.org/TR/2001/REC-SVG-20010904/DTD/svg10.dtd">
<svg xmlns="http://www.w3.org/2000/svg" width="504" height="328">
<style type="text/css">
.brush0 { fill: rgb(255,255,255); }
.pen0 { stroke: rgb(0,0,0); stroke-width: 1; stroke-linejoin: round; }
.font0 { font-size: 11px; font-family: "MS Sans Serif"; }
.pen1 { stroke: rgb(0,0,0); stroke-width: 7; stroke-linejoin: round; }
.brush1 { fill: none; }
.font1 { font-weight: bold; font-size: 16px; font-family: System, sans-serif; }
</style>
<g>
<line stroke="#000" stroke-width="3" stroke-linejoin="round" fill="none" x1="28" x2="156" y1="260" y2="260"/>
<line stroke="#000" stroke-width="3" stroke-linejoin="round" fill="none" x1="28" x2="156" y1="196" y2="196"/>
<line stroke="#000" stroke-width="3" stroke-linejoin="round" fill="none" x1="204" x2="332" y1="260" y2="260"/>
<line stroke="#000" stroke-width="3" stroke-linejoin="round" fill="none" x1="364" x2="492" y1="260" y2="260"/>
<path stroke="#000" stroke-width="3" stroke-linejoin="round" d="M 364.00001519847865,163.9999980776628 A 127.5,128.0 0 0 0 428.18409575718243,259.67010040312914" fill="none"/>
<path stroke="#000" stroke-width="3" stroke-linejoin="round" d="M 428.0,164.0 A 32.0,32.0 0 1 0 364.0,164.0" fill="none"/>
<path stroke="#000" stroke-width="3" stroke-linejoin="round" d="M 492.0,164.0 A 32.0,32.0 0 1 0 428.0,164.0" fill="none"/>
<path stroke="#000" stroke-width="3" stroke-linejoin="round" d="M 427.75343867296755,259.5616687519423 A 128.0,128.0 0 0 0 491.99612444498604,163.9995117411006" fill="none"/>
<circle stroke="#000" stroke-width="3" stroke-linejoin="round" cx="268.0" cy="196.0" fill="none" r="64.0"/>
<path stroke="#000" stroke-width="3" stroke-linejoin="round" d="M 155.67335854398792,259.6733585439879 A 45.5,45.5 0 0 0 155.67335854398792,195.32664145601208" fill="none"/>
<path stroke="#000" stroke-width="3" stroke-linejoin="round" d="M 27.32664145601209,195.32664145601208 A 45.5,45.5 0 0 0 27.833215521631903,260.1720792237131" fill="none"/>
</g>
</svg>
