<?xml version="1.0" encoding="UTF-8" standalone="no"?>
<!DOCTYPE svg PUBLIC "-//W3C//DTD SVG 1.0//EN" "http://www.w3.org/TR/2001/REC-SVG-20010904/DTD/svg10.dtd">
<svg xmlns="http://www.w3.org/2000/svg" width="408" height="328">
<style type="text/css">
.brush0 { fill: rgb(255,255,255); }
.pen0 { stroke: rgb(0,0,0); stroke-width: 1; stroke-linejoin: round; }
.font0 { font-size: 13px; font-family: "MS Sans Serif"; }
.pen1 { stroke: rgb(0,0,0); stroke-width: 7; stroke-linejoin: round; }
.brush1 { fill: none; }
.brush2 { fill: rgb(0,0,0); }
.font1 { font-weight: bold; font-size: 20px; font-family: System, sans-serif; }
</style>
<g>
<line stroke="#000" stroke-width="3" stroke-linejoin="round" fill="none" x1="12" x2="44" y1="260" y2="196"/>
<line stroke="#000" stroke-width="3" stroke-linejoin="round" fill="none" x1="44" x2="76" y1="196" y2="260"/>
<line stroke="#000" stroke-width="3" stroke-linejoin="round" fill="none" x1="76" x2="108" y1="260" y2="196"/>
<line stroke="#000" stroke-width="3" stroke-linejoin="round" fill="none" x1="108" x2="140" y1="196" y2="260"/>
<line stroke="#000" stroke-width="3" stroke-linejoin="round" fill="none" x1="12" x2="140" y1="196" y2="196"/>
<path stroke="#000" stroke-width="3" stroke-linejoin="round" d="M 44.0,260.0 A 16.0,16.0 0 1 0 12.0,260.0" fill="none"/>
<path stroke="#000" stroke-width="3" stroke-linejoin="round" d="M 108.0,260.0 A 16.0,16.0 0 1 0 76.0,260.0" fill="none"/>
<path stroke="#000" stroke-width="3" stroke-linejoin="round" d="M 172.0,260.0 A 16.0,16.0 0 1 0 140.0,260.0" fill="none"/>
<line stroke="#000" stroke-width="3" stroke-linejoin="round" fill="none" x1="204" x2="332" y1="196" y2="196"/>
<line stroke="#000" stroke-width="3" stroke-linejoin="round" fill="none" x1="332" x2="300" y1="196" y2="164"/>
<line stroke="#000" stroke-width="3" stroke-linejoin="round" fill="none" x1="332" x2="300" y1="196" y2="228"/>
<line stroke="#000" stroke-width="3" stroke-linejoin="round" fill="none" x1="364" x2="364" y1="164" y2="212"/>
<ellipse class="pen1 brush2" cx="364" cy="227" rx="1" ry="1"/>
</g>
</svg>
