<?xml version="1.0" encoding="UTF-8" standalone="no"?>
<!DOCTYPE svg PUBLIC "-//W3C//DTD SVG 1.0//EN" "http://www.w3.org/TR/2001/REC-SVG-20010904/DTD/svg10.dtd">
<svg xmlns="http://www.w3.org/2000/svg" width="680" height="644">
<style type="text/css">
.brush0 { fill: rgb(255,255,255); }
.pen0 { stroke: rgb(0,0,0); stroke-width: 1; stroke-linejoin: round; }
.font0 { font-size: 13px; font-family: "MS Sans Serif"; }
.pen1 { stroke: rgb(0,0,0); stroke-width: 14; stroke-linejoin: round; }
.brush1 { fill: none; }
.brush2 { fill: rgb(0,0,0); }
.font1 { font-weight: bold; font-size: 20px; font-family: System, sans-serif; }
</style>
<g>
<line stroke="#000" stroke-width="3" stroke-linejoin="round" fill="none" x1="404" x2="660" y1="386" y2="386"/>
<circle stroke="#000" stroke-width="3" stroke-linejoin="round" cx="468.0" cy="450.0" fill="none" r="64.0"/>
<line stroke="#000" stroke-width="3" stroke-linejoin="round" fill="none" x1="513" x2="422" y1="404" y2="495"/>
<line stroke="#000" stroke-width="3" stroke-linejoin="round" fill="none" x1="422" x2="513" y1="404" y2="495"/>
<circle stroke="#000" stroke-width="3" stroke-linejoin="round" cx="596.0" cy="450.0" fill="none" r="64.0"/>
<line stroke="#000" stroke-width="3" stroke-linejoin="round" fill="none" x1="641" x2="550" y1="404" y2="495"/>
<line stroke="#000" stroke-width="3" stroke-linejoin="round" fill="none" x1="550" x2="641" y1="404" y2="495"/>
<line stroke="#000" stroke-width="3" stroke-linejoin="round" fill="none" x1="596" x2="660" y1="322" y2="386"/>
<line stroke="#000" stroke-width="3" stroke-linejoin="round" fill="none" x1="628" x2="564" y1="290" y2="354"/>
<line stroke="#000" stroke-width="3" stroke-linejoin="round" fill="none" x1="20" x2="276" y1="386" y2="386"/>
<line stroke="#000" stroke-width="3" stroke-linejoin="round" fill="none" x1="276" x2="212" y1="386" y2="322"/>
<line stroke="#000" stroke-width="3" stroke-linejoin="round" fill="none" x1="276" x2="212" y1="386" y2="450"/>
<line stroke="#000" stroke-width="3" stroke-linejoin="round" fill="none" x1="276" x2="276" y1="258" y2="514"/>
<line stroke="#000" stroke-width="3" stroke-linejoin="round" fill="none" x1="340" x2="340" y1="322" y2="418"/>
<ellipse class="pen1 brush2" cx="340" cy="449" rx="1" ry="1"/>
</g>
</svg>
