<?xml version="1.0" encoding="UTF-8" standalone="no"?>
<!DOCTYPE svg PUBLIC "-//W3C//DTD SVG 1.0//EN" "http://www.w3.org/TR/2001/REC-SVG-20010904/DTD/svg10.dtd">
<svg xmlns="http://www.w3.org/2000/svg" width="504" height="328">
<style type="text/css">
.brush0 { fill: rgb(255,255,255); }
.pen0 { stroke: rgb(0,0,0); stroke-width: 1; stroke-linejoin: round; }
.font0 { font-size: 11px; font-family: "MS Sans Serif"; }
.pen1 { stroke: rgb(0,0,0); stroke-width: 7; stroke-linejoin: round; }
.brush1 { fill: none; }
.font1 { font-weight: bold; font-size: 16px; font-family: System, sans-serif; }
</style>
<g>
<line stroke="#000" stroke-width="3" stroke-linejoin="round" fill="none" x1="12" x2="140" y1="196" y2="196"/>
<line stroke="#000" stroke-width="3" stroke-linejoin="round" fill="none" x1="76" x2="76" y1="132" y2="260"/>
<circle stroke="#000" stroke-width="3" stroke-linejoin="round" cx="204.0" cy="196.0" fill="none" r="32.0"/>
<ellipse class="pen1 brush1" cx="204" cy="196" rx="1" ry="1"/>
<path stroke="#000" stroke-width="3" stroke-linejoin="round" d="M 268.00001519847865,163.9999980776628 A 127.5,128.0 0 0 0 332.18409575718243,259.67010040312914" fill="none"/>
<path stroke="#000" stroke-width="3" stroke-linejoin="round" d="M 332.0,164.0 A 32.0,32.0 0 1 0 268.0,164.0" fill="none"/>
<path stroke="#000" stroke-width="3" stroke-linejoin="round" d="M 396.0,164.0 A 32.0,32.0 0 1 0 332.0,164.0" fill="none"/>
<path stroke="#000" stroke-width="3" stroke-linejoin="round" d="M 331.75343867296755,259.5616687519423 A 128.0,128.0 0 0 0 395.99612444498604,163.9995117411006" fill="none"/>
<line stroke="#000" stroke-width="3" stroke-linejoin="round" fill="none" x1="460" x2="428" y1="132" y2="164"/>
<line stroke="#000" stroke-width="3" stroke-linejoin="round" fill="none" x1="460" x2="492" y1="132" y2="164"/>
<line stroke="#000" stroke-width="3" stroke-linejoin="round" fill="none" x1="460" x2="460" y1="132" y2="260"/>
<line stroke="#000" stroke-width="3" stroke-linejoin="round" fill="none" x1="60" x2="92" y1="68" y2="68"/>
<line stroke="#000" stroke-width="3" stroke-linejoin="round" fill="none" x1="92" x2="92" y1="68" y2="100"/>
<line stroke="#000" stroke-width="3" stroke-linejoin="round" fill="none" x1="92" x2="60" y1="100" y2="100"/>
<line stroke="#000" stroke-width="3" stroke-linejoin="round" fill="none" x1="60" x2="60" y1="100" y2="68"/>
</g>
</svg>
