<?xml version="1.0" encoding="UTF-8" standalone="no"?>
<!DOCTYPE svg PUBLIC "-//W3C//DTD SVG 1.0//EN" "http://www.w3.org/TR/2001/REC-SVG-20010904/DTD/svg10.dtd">
<svg xmlns="http://www.w3.org/2000/svg" width="376" height="328">
<style type="text/css">
.brush0 { fill: rgb(255,255,255); }
.pen0 { stroke: rgb(0,0,0); stroke-width: 1; stroke-linejoin: round; }
.font0 { font-size: 11px; font-family: "MS Sans Serif"; }
.pen1 { stroke: rgb(0,0,0); stroke-width: 7; stroke-linejoin: round; }
.brush1 { fill: none; }
.font1 { font-weight: bold; font-size: 16px; font-family: System, sans-serif; }
</style>
<g>
<circle stroke="#000" stroke-width="3" stroke-linejoin="round" cx="76.0" cy="196.0" fill="none" r="64.0"/>
<path stroke="#000" stroke-width="3" stroke-linejoin="round" d="M 109.28252945925931,194.8555890978917 A 45.5,45.0 0 0 0 42.195995936411876,194.33917086209348" fill="none"/>
<path stroke="#000" stroke-width="3" stroke-linejoin="round" d="M 43.8332155216319,196.1720792237131 A 45.5,45.5 0 0 0 107.67335854398792,195.67335854398792" fill="none"/>
<path stroke="#000" stroke-width="3" stroke-linejoin="round" d="M 187.67335854398792,195.67335854398792 A 45.5,45.5 0 0 0 187.67335854398792,131.32664145601208" fill="none"/>
<path stroke="#000" stroke-width="3" stroke-linejoin="round" d="M 187.32664145601208,195.32664145601208 A 45.5,45.5 0 0 0 187.8332155216319,260.1720792237131" fill="none"/>
<path stroke="#000" stroke-width="3" stroke-linejoin="round" d="M 301.2825294592593,194.8555890978917 A 45.5,45.0 0 0 0 234.19599593641186,194.33917086209348" fill="none"/>
<path stroke="#000" stroke-width="3" stroke-linejoin="round" d="M 299.8332155216319,196.1720792237131 A 45.5,45.5 0 0 0 363.6733585439879,195.67335854398792" fill="none"/>
<path stroke="#000" stroke-width="3" stroke-linejoin="round" d="M 301.2825294592593,258.8555890978917 A 45.5,45.0 0 0 0 234.19599593641186,258.33917086209345" fill="none"/>
<path stroke="#000" stroke-width="3" stroke-linejoin="round" d="M 299.8332155216319,260.1720792237131 A 45.5,45.5 0 0 0 363.6733585439879,259.6733585439879" fill="none"/>
</g>
</svg>
