<?xml version="1.0" encoding="UTF-8" standalone="no"?>
<!DOCTYPE svg PUBLIC "-//W3C//DTD SVG 1.0//EN" "http://www.w3.org/TR/2001/REC-SVG-20010904/DTD/svg10.dtd">
<svg xmlns="http://www.w3.org/2000/svg" width="712" height="644">
<style type="text/css">
.brush0 { fill: rgb(255,255,255); }
.pen0 { stroke: rgb(0,0,0); stroke-width: 1; stroke-linejoin: round; }
.font0 { font-size: 13px; font-family: "MS Sans Serif"; }
.pen1 { stroke: rgb(0,0,0); stroke-width: 14; stroke-linejoin: round; }
.brush1 { fill: none; }
.font1 { font-weight: bold; font-size: 20px; font-family: System, sans-serif; }
</style>
<g>
<circle stroke="#000" stroke-width="3" stroke-linejoin="round" cx="564.0" cy="386.0" fill="none" r="128.0"/>
<path stroke="#000" stroke-width="3" stroke-linejoin="round" d="M 630.5350726440398,383.7007480670337 A 90.5,90.5 0 0 0 496.9400411235943,383.1809827674058" fill="none"/>
<path stroke="#000" stroke-width="3" stroke-linejoin="round" d="M 500.0087204645222,385.99114220532783 A 90.5,90.5 0 0 0 627.4931636973826,385.49316369738256" fill="none"/>
<line stroke="#000" stroke-width="3" stroke-linejoin="round" fill="none" x1="20" x2="276" y1="258" y2="258"/>
<line stroke="#000" stroke-width="3" stroke-linejoin="round" fill="none" x1="276" x2="276" y1="258" y2="514"/>
<line stroke="#000" stroke-width="3" stroke-linejoin="round" fill="none" x1="276" x2="20" y1="514" y2="514"/>
<line stroke="#000" stroke-width="3" stroke-linejoin="round" fill="none" x1="20" x2="20" y1="514" y2="258"/>
<line stroke="#000" stroke-width="3" stroke-linejoin="round" fill="none" x1="84" x2="212" y1="322" y2="322"/>
<line stroke="#000" stroke-width="3" stroke-linejoin="round" fill="none" x1="212" x2="212" y1="322" y2="450"/>
<line stroke="#000" stroke-width="3" stroke-linejoin="round" fill="none" x1="212" x2="84" y1="450" y2="450"/>
<line stroke="#000" stroke-width="3" stroke-linejoin="round" fill="none" x1="84" x2="84" y1="450" y2="322"/>
<line stroke="#000" stroke-width="3" stroke-linejoin="round" fill="none" x1="372" x2="308" y1="322" y2="386"/>
<line stroke="#000" stroke-width="3" stroke-linejoin="round" fill="none" x1="308" x2="372" y1="386" y2="450"/>
</g>
</svg>
