<?xml version="1.0" encoding="UTF-8" standalone="no"?>
<!DOCTYPE svg PUBLIC "-//W3C//DTD SVG 1.0//EN" "http://www.w3.org/TR/2001/REC-SVG-20010904/DTD/svg10.dtd">
<svg xmlns="http://www.w3.org/2000/svg" width="568" height="328">
<style type="text/css">
.brush0 { fill: rgb(255,255,255); }
.pen0 { stroke: rgb(0,0,0); stroke-width: 1; stroke-linejoin: round; }
.font0 { font-size: 13px; font-family: "MS Sans Serif"; }
.pen1 { stroke: rgb(0,0,0); stroke-width: 7; stroke-linejoin: round; }
.brush1 { fill: none; }
.font1 { font-weight: bold; font-size: 20px; font-family: System, sans-serif; }
</style>
<g>
<line stroke="#000" stroke-width="3" stroke-linejoin="round" fill="none" x1="108" x2="236" y1="132" y2="132"/>
<line stroke="#000" stroke-width="3" stroke-linejoin="round" fill="none" x1="236" x2="236" y1="132" y2="260"/>
<line stroke="#000" stroke-width="3" stroke-linejoin="round" fill="none" x1="236" x2="108" y1="260" y2="260"/>
<line stroke="#000" stroke-width="3" stroke-linejoin="round" fill="none" x1="108" x2="108" y1="260" y2="132"/>
<circle stroke="#000" stroke-width="3" stroke-linejoin="round" cx="44.0" cy="196.0" fill="none" r="32.0"/>
<ellipse class="pen1 brush1" cx="44" cy="196" rx="1" ry="1"/>
<line stroke="#000" stroke-width="3" stroke-linejoin="round" fill="none" x1="428" x2="556" y1="196" y2="196"/>
<line stroke="#000" stroke-width="3" stroke-linejoin="round" fill="none" x1="428" x2="428" y1="132" y2="196"/>
<line stroke="#000" stroke-width="3" stroke-linejoin="round" fill="none" x1="492" x2="492" y1="132" y2="196"/>
<line stroke="#000" stroke-width="3" stroke-linejoin="round" fill="none" x1="556" x2="556" y1="132" y2="196"/>
<line stroke="#000" stroke-width="3" stroke-linejoin="round" fill="none" x1="492" x2="492" y1="196" y2="260"/>
<line stroke="#000" stroke-width="3" stroke-linejoin="round" fill="none" x1="332" x2="332" y1="164" y2="228"/>
<line stroke="#000" stroke-width="3" stroke-linejoin="round" fill="none" x1="300" x2="364" y1="228" y2="228"/>
<ellipse class="pen1 brush1" cx="300" cy="164" rx="1" ry="1"/>
<ellipse class="pen1 brush1" cx="364" cy="164" rx="1" ry="1"/>
<circle stroke="#000" stroke-width="3" stroke-linejoin="round" cx="332.0" cy="196.0" fill="none" r="64.0"/>
</g>
</svg>
