<?xml version="1.0" encoding="UTF-8" standalone="no"?>
<!DOCTYPE svg PUBLIC "-//W3C//DTD SVG 1.0//EN" "http://www.w3.org/TR/2001/REC-SVG-20010904/DTD/svg10.dtd">
<svg xmlns="http://www.w3.org/2000/svg" width="376" height="328">
<style type="text/css">
.brush0 { fill: rgb(255,255,255); }
.pen0 { stroke: rgb(0,0,0); stroke-width: 1; stroke-linejoin: round; }
.font0 { font-size: 11px; font-family: "MS Sans Serif"; }
.pen1 { stroke: rgb(0,0,0); stroke-width: 7; stroke-linejoin: round; }
.brush1 { fill: none; }
.font1 { font-weight: bold; font-size: 16px; font-family: System, sans-serif; }
</style>
<g>
<line stroke="#000" stroke-width="3" stroke-linejoin="round" fill="none" x1="108" x2="108" y1="228" y2="292"/>
<line stroke="#000" stroke-width="3" stroke-linejoin="round" fill="none" x1="108" x2="108" y1="100" y2="164"/>
<line stroke="#000" stroke-width="3" stroke-linejoin="round" fill="none" x1="140" x2="204" y1="196" y2="196"/>
<line stroke="#000" stroke-width="3" stroke-linejoin="round" fill="none" x1="12" x2="76" y1="196" y2="196"/>
<line stroke="#000" stroke-width="3" stroke-linejoin="round" fill="none" x1="76" x2="108" y1="260" y2="228"/>
<line stroke="#000" stroke-width="3" stroke-linejoin="round" fill="none" x1="108" x2="140" y1="228" y2="260"/>
<line stroke="#000" stroke-width="3" stroke-linejoin="round" fill="none" x1="44" x2="76" y1="164" y2="196"/>
<line stroke="#000" stroke-width="3" stroke-linejoin="round" fill="none" x1="76" x2="44" y1="196" y2="228"/>
<line stroke="#000" stroke-width="3" stroke-linejoin="round" fill="none" x1="76" x2="108" y1="132" y2="164"/>
<line stroke="#000" stroke-width="3" stroke-linejoin="round" fill="none" x1="108" x2="140" y1="164" y2="132"/>
<line stroke="#000" stroke-width="3" stroke-linejoin="round" fill="none" x1="172" x2="140" y1="164" y2="196"/>
<line stroke="#000" stroke-width="3" stroke-linejoin="round" fill="none" x1="140" x2="172" y1="196" y2="228"/>
<path stroke="#000" stroke-width="3" stroke-linejoin="round" d="M 236.00001519847862,163.9999980776628 A 127.5,128.0 0 0 0 300.18409575718243,259.67010040312914" fill="none"/>
<path stroke="#000" stroke-width="3" stroke-linejoin="round" d="M 300.0,164.0 A 32.0,32.0 0 1 0 236.0,164.0" fill="none"/>
<path stroke="#000" stroke-width="3" stroke-linejoin="round" d="M 364.0,164.0 A 32.0,32.0 0 1 0 300.0,164.0" fill="none"/>
<path stroke="#000" stroke-width="3" stroke-linejoin="round" d="M 299.75343867296755,259.5616687519423 A 128.0,128.0 0 0 0 363.99612444498604,163.9995117411006" fill="none"/>
</g>
</svg>
