<?xml version="1.0" encoding="UTF-8" standalone="no"?>
<!DOCTYPE svg PUBLIC "-//W3C//DTD SVG 1.0//EN" "http://www.w3.org/TR/2001/REC-SVG-20010904/DTD/svg10.dtd">
<svg xmlns="http://www.w3.org/2000/svg" width="568" height="328">
<style type="text/css">
.brush0 { fill: rgb(255,255,255); }
.pen0 { stroke: rgb(0,0,0); stroke-width: 1; stroke-linejoin: round; }
.font0 { font-size: 13px; font-family: "MS Sans Serif"; }
.pen1 { stroke: rgb(0,0,0); stroke-width: 7; stroke-linejoin: round; }
.brush1 { fill: none; }
.font1 { font-weight: bold; font-size: 20px; font-family: System, sans-serif; }
</style>
<g>
<path stroke="#000" stroke-width="3" stroke-linejoin="round" d="M 460.0,132.0 A 32.0,32.0 0 1 0 460.0,196.0" fill="none"/>
<path stroke="#000" stroke-width="3" stroke-linejoin="round" d="M 428.0,164.0 A 32.0,32.0 0 0 0 492.0,164.0" fill="none"/>
<path stroke="#000" stroke-width="3" stroke-linejoin="round" d="M 492.0,164.0 A 32.0,32.0 0 1 0 492.0,228.0" fill="none"/>
<path stroke="#000" stroke-width="3" stroke-linejoin="round" d="M 460.0,196.0 A 32.0,32.0 0 0 0 524.0,196.0" fill="none"/>
<path stroke="#000" stroke-width="3" stroke-linejoin="round" d="M 492.0,228.0 A 32.0,32.0 0 0 0 556.0,228.0" fill="none"/>
<path stroke="#000" stroke-width="3" stroke-linejoin="round" d="M 524.0,196.0 A 32.0,32.0 0 1 0 524.0,260.0" fill="none"/>
<circle stroke="#000" stroke-width="3" stroke-linejoin="round" cx="332.0" cy="196.0" fill="none" r="64.0"/>
<line stroke="#000" stroke-width="3" stroke-linejoin="round" fill="none" x1="332" x2="332" y1="132" y2="260"/>
<circle stroke="#000" stroke-width="3" stroke-linejoin="round" cx="172.0" cy="196.0" fill="none" r="64.0"/>
<circle stroke="#000" stroke-width="3" stroke-linejoin="round" cx="172.0" cy="196.0" fill="none" r="16.0"/>
<line stroke="#000" stroke-width="3" stroke-linejoin="round" fill="none" x1="204" x2="172" y1="228" y2="260"/>
<line stroke="#000" stroke-width="3" stroke-linejoin="round" fill="none" x1="172" x2="204" y1="260" y2="292"/>
<line stroke="#000" stroke-width="3" stroke-linejoin="round" fill="none" x1="12" x2="76" y1="196" y2="196"/>
<ellipse class="pen1 brush1" cx="44" cy="228" rx="1" ry="1"/>
<ellipse class="pen1 brush1" cx="44" cy="164" rx="1" ry="1"/>
</g>
</svg>
