<?xml version="1.0" encoding="UTF-8" standalone="no"?>
<!DOCTYPE svg PUBLIC "-//W3C//DTD SVG 1.0//EN" "http://www.w3.org/TR/2001/REC-SVG-20010904/DTD/svg10.dtd">
<svg xmlns="http://www.w3.org/2000/svg" width="648" height="644">
<style type="text/css">
.brush0 { fill: rgb(255,255,255); }
.pen0 { stroke: rgb(0,0,0); stroke-width: 1; stroke-linejoin: round; }
.font0 { font-size: 13px; font-family: "MS Sans Serif"; }
.pen1 { stroke: rgb(0,0,0); stroke-width: 14; stroke-linejoin: round; }
.brush1 { fill: none; }
.font1 { font-weight: bold; font-size: 20px; font-family: System, sans-serif; }
</style>
<g>
<line stroke="#000" stroke-width="3" stroke-linejoin="round" fill="none" x1="20" x2="148" y1="322" y2="322"/>
<line stroke="#000" stroke-width="3" stroke-linejoin="round" fill="none" x1="148" x2="148" y1="322" y2="450"/>
<line stroke="#000" stroke-width="3" stroke-linejoin="round" fill="none" x1="148" x2="20" y1="450" y2="450"/>
<line stroke="#000" stroke-width="3" stroke-linejoin="round" fill="none" x1="20" x2="20" y1="450" y2="322"/>
<circle stroke="#000" stroke-width="3" stroke-linejoin="round" cx="340.0" cy="386.0" fill="none" r="128.0"/>
<line stroke="#000" stroke-width="3" stroke-linejoin="round" fill="none" x1="340" x2="340" y1="322" y2="450"/>
<line stroke="#000" stroke-width="3" stroke-linejoin="round" fill="none" x1="276" x2="404" y1="450" y2="450"/>
<path stroke="#000" stroke-width="3" stroke-linejoin="round" d="M 275.3266414560121,193.32664145601208 A 45.5,45.5 0 0 0 275.8332155216319,258.1720792237131" fill="none"/>
<path stroke="#000" stroke-width="3" stroke-linejoin="round" d="M 403.3266414560121,193.32664145601208 A 45.5,45.5 0 0 0 403.8332155216319,258.1720792237131" fill="none"/>
<path stroke="#000" stroke-width="3" stroke-linejoin="round" d="M 339.3266414560121,193.32664145601208 A 45.5,45.5 0 0 0 339.8332155216319,258.1720792237131" fill="none"/>
<line stroke="#000" stroke-width="3" stroke-linejoin="round" fill="none" x1="500" x2="436" y1="130" y2="194"/>
<line stroke="#000" stroke-width="3" stroke-linejoin="round" fill="none" x1="436" x2="500" y1="194" y2="258"/>
<line stroke="#000" stroke-width="3" stroke-linejoin="round" fill="none" x1="596" x2="596" y1="258" y2="514"/>
<line stroke="#000" stroke-width="3" stroke-linejoin="round" fill="none" x1="564" x2="628" y1="130" y2="130"/>
<line stroke="#000" stroke-width="3" stroke-linejoin="round" fill="none" x1="628" x2="628" y1="130" y2="194"/>
<line stroke="#000" stroke-width="3" stroke-linejoin="round" fill="none" x1="628" x2="564" y1="194" y2="194"/>
<line stroke="#000" stroke-width="3" stroke-linejoin="round" fill="none" x1="564" x2="564" y1="194" y2="130"/>
</g>
</svg>
