<?xml version="1.0" encoding="UTF-8" standalone="no"?>
<!DOCTYPE svg PUBLIC "-//W3C//DTD SVG 1.0//EN" "http://www.w3.org/TR/2001/REC-SVG-20010904/DTD/svg10.dtd">
<svg xmlns="http://www.w3.org/2000/svg" width="328" height="328">
<style type="text/css">
.brush0 { fill: rgb(255,255,255); }
.pen0 { stroke: rgb(0,0,0); stroke-width: 1; stroke-linejoin: round; }
.font0 { font-size: 11px; font-family: "MS Sans Serif"; }
.pen1 { stroke: rgb(0,0,0); stroke-width: 7; stroke-linejoin: round; }
.brush1 { fill: none; }
.brush2 { fill: rgb(0,0,0); }
.font1 { font-weight: bold; font-size: 16px; font-family: System, sans-serif; }
</style>
<g>
<circle stroke="#000" stroke-width="3" stroke-linejoin="round" cx="188.0" cy="196.0" fill="none" r="64.0"/>
<line stroke="#000" stroke-width="3" stroke-linejoin="round" fill="none" x1="188" x2="252" y1="196" y2="196"/>
<line stroke="#000" stroke-width="3" stroke-linejoin="round" fill="none" x1="188" x2="188" y1="132" y2="196"/>
<path stroke="#000" stroke-width="3" stroke-linejoin="round" d="M 28.0,228.0 A 16.0,16.0 0 1 0 12.0,212.0" fill="none"/>
<path stroke="#000" stroke-width="3" stroke-linejoin="round" d="M 12.0,244.0 A 16.0,16.0 0 1 0 28.0,228.0" fill="none"/>
<path stroke="#000" stroke-width="3" stroke-linejoin="round" d="M 92.0,212.0 A 16.0,16.0 0 1 0 60.0,212.0" fill="none"/>
<path stroke="#000" stroke-width="3" stroke-linejoin="round" d="M 60.0,244.0 A 16.0,16.0 0 0 0 92.0,244.0" fill="none"/>
<line stroke="#000" stroke-width="3" stroke-linejoin="round" fill="none" x1="60" x2="60" y1="212" y2="244"/>
<line stroke="#000" stroke-width="3" stroke-linejoin="round" fill="none" x1="92" x2="92" y1="212" y2="244"/>
<path stroke="#000" stroke-width="3" stroke-linejoin="round" d="M 281.3128047094055,140.87520313960366 A 16.0,16.0 0 0 0 284.0,132.0" fill="none"/>
<ellipse class="pen1 brush2" cx="280" cy="131" rx="3" ry="3"/>
</g>
</svg>
