<?xml version="1.0" encoding="UTF-8" standalone="no"?>
<!DOCTYPE svg PUBLIC "-//W3C//DTD SVG 1.0//EN" "http://www.w3.org/TR/2001/REC-SVG-20010904/DTD/svg10.dtd">
<svg xmlns="http://www.w3.org/2000/svg" width="728" height="328">
<style type="text/css">
.brush0 { fill: rgb(255,255,255); }
.pen0 { stroke: rgb(0,0,0); stroke-width: 1; stroke-linejoin: round; }
.font0 { font-size: 11px; font-family: "MS Sans Serif"; }
.pen1 { stroke: rgb(0,0,0); stroke-width: 7; stroke-linejoin: round; }
.brush1 { fill: none; }
.font1 { font-weight: bold; font-size: 16px; font-family: System, sans-serif; }
</style>
<g>
<circle stroke="#000" stroke-width="3" stroke-linejoin="round" cx="44.0" cy="196.0" fill="none" r="32.0"/>
<circle stroke="#000" stroke-width="3" stroke-linejoin="round" cx="492.0" cy="196.0" fill="none" r="64.0"/>
<line stroke="#000" stroke-width="3" stroke-linejoin="round" fill="none" x1="108" x2="236" y1="196" y2="196"/>
<line stroke="#000" stroke-width="3" stroke-linejoin="round" fill="none" x1="236" x2="204" y1="196" y2="164"/>
<line stroke="#000" stroke-width="3" stroke-linejoin="round" fill="none" x1="236" x2="204" y1="196" y2="228"/>
<line stroke="#000" stroke-width="3" stroke-linejoin="round" fill="none" x1="268" x2="396" y1="196" y2="196"/>
<line stroke="#000" stroke-width="3" stroke-linejoin="round" fill="none" x1="268" x2="300" y1="196" y2="164"/>
<line stroke="#000" stroke-width="3" stroke-linejoin="round" fill="none" x1="268" x2="300" y1="196" y2="228"/>
<path stroke="#000" stroke-width="3" stroke-linejoin="round" d="M 588.0000151984786,163.9999980776628 A 127.5,128.0 0 0 0 652.1840957571825,259.67010040312914" fill="none"/>
<path stroke="#000" stroke-width="3" stroke-linejoin="round" d="M 652.0,164.0 A 32.0,32.0 0 1 0 588.0,164.0" fill="none"/>
<path stroke="#000" stroke-width="3" stroke-linejoin="round" d="M 716.0,164.0 A 32.0,32.0 0 1 0 652.0,164.0" fill="none"/>
<path stroke="#000" stroke-width="3" stroke-linejoin="round" d="M 651.7534386729676,259.5616687519423 A 128.0,128.0 0 0 0 715.9961244449861,163.9995117411006" fill="none"/>
<line stroke="#000" stroke-width="3" stroke-linejoin="round" fill="none" x1="428" x2="556" y1="260" y2="260"/>
<line stroke="#000" stroke-width="3" stroke-linejoin="round" fill="none" x1="588" x2="716" y1="260" y2="260"/>
</g>
</svg>
