<?xml version="1.0" encoding="UTF-8" standalone="no"?>
<!DOCTYPE svg PUBLIC "-//W3C//DTD SVG 1.0//EN" "http://www.w3.org/TR/2001/REC-SVG-20010904/DTD/svg10.dtd">
<svg xmlns="http://www.w3.org/2000/svg" width="1320" height="644">
<style type="text/css">
.brush0 { fill: rgb(255,255,255); }
.pen0 { stroke: rgb(0,0,0); stroke-width: 1; stroke-linejoin: round; }
.font0 { font-size: 13px; font-family: "MS Sans Serif"; }
.pen1 { stroke: rgb(0,0,0); stroke-width: 14; stroke-linejoin: round; }
.brush1 { fill: none; }
.font1 { font-weight: bold; font-size: 20px; font-family: System, sans-serif; }
</style>
<g>
<line stroke="#000" stroke-width="3" stroke-linejoin="round" fill="none" x1="212" x2="468" y1="258" y2="514"/>
<line stroke="#000" stroke-width="3" stroke-linejoin="round" fill="none" x1="468" x2="212" y1="258" y2="514"/>
<line stroke="#000" stroke-width="3" stroke-linejoin="round" fill="none" x1="212" x2="212" y1="386" y2="514"/>
<line stroke="#000" stroke-width="3" stroke-linejoin="round" fill="none" x1="468" x2="468" y1="386" y2="514"/>
<circle stroke="#000" stroke-width="3" stroke-linejoin="round" cx="660.0" cy="386.0" fill="none" r="128.0"/>
<line stroke="#000" stroke-width="3" stroke-linejoin="round" fill="none" x1="692" x2="756" y1="322" y2="386"/>
<line stroke="#000" stroke-width="3" stroke-linejoin="round" fill="none" x1="756" x2="692" y1="386" y2="450"/>
<line stroke="#000" stroke-width="3" stroke-linejoin="round" fill="none" x1="20" x2="84" y1="514" y2="386"/>
<line stroke="#000" stroke-width="3" stroke-linejoin="round" fill="none" x1="84" x2="148" y1="386" y2="514"/>
<line stroke="#000" stroke-width="3" stroke-linejoin="round" fill="none" x1="148" x2="148" y1="258" y2="514"/>
<line stroke="#000" stroke-width="3" stroke-linejoin="round" fill="none" x1="20" x2="148" y1="386" y2="386"/>
<line stroke="#000" stroke-width="3" stroke-linejoin="round" fill="none" x1="20" x2="20" y1="258" y2="386"/>
<line stroke="#000" stroke-width="3" stroke-linejoin="round" fill="none" x1="852" x2="980" y1="514" y2="258"/>
<line stroke="#000" stroke-width="3" stroke-linejoin="round" fill="none" x1="980" x2="1108" y1="258" y2="514"/>
<line stroke="#000" stroke-width="3" stroke-linejoin="round" fill="none" x1="1140" x2="1076" y1="322" y2="386"/>
<line stroke="#000" stroke-width="3" stroke-linejoin="round" fill="none" x1="1076" x2="1140" y1="386" y2="450"/>
<line stroke="#000" stroke-width="3" stroke-linejoin="round" fill="none" x1="1172" x2="1236" y1="418" y2="482"/>
<line stroke="#000" stroke-width="3" stroke-linejoin="round" fill="none" x1="1236" x2="1300" y1="482" y2="418"/>
<line stroke="#000" stroke-width="3" stroke-linejoin="round" fill="none" x1="852" x2="980" y1="514" y2="514"/>
<line stroke="#000" stroke-width="3" stroke-linejoin="round" fill="none" x1="1108" x2="1236" y1="514" y2="514"/>
</g>
</svg>
