<?xml version="1.0" encoding="UTF-8" standalone="no"?>
<!DOCTYPE svg PUBLIC "-//W3C//DTD SVG 1.0//EN" "http://www.w3.org/TR/2001/REC-SVG-20010904/DTD/svg10.dtd">
<svg xmlns="http://www.w3.org/2000/svg" width="408" height="328">
<style type="text/css">
.brush0 { fill: rgb(255,255,255); }
.pen0 { stroke: rgb(0,0,0); stroke-width: 1; stroke-linejoin: round; }
.font0 { font-size: 13px; font-family: "MS Sans Serif"; }
.pen1 { stroke: rgb(0,0,0); stroke-width: 7; stroke-linejoin: round; }
.brush1 { fill: none; }
.font1 { font-weight: bold; font-size: 20px; font-family: System, sans-serif; }
</style>
<g>
<line stroke="#000" stroke-width="3" stroke-linejoin="round" fill="none" x1="12" x2="44" y1="260" y2="196"/>
<line stroke="#000" stroke-width="3" stroke-linejoin="round" fill="none" x1="44" x2="76" y1="196" y2="260"/>
<line stroke="#000" stroke-width="3" stroke-linejoin="round" fill="none" x1="76" x2="108" y1="260" y2="196"/>
<line stroke="#000" stroke-width="3" stroke-linejoin="round" fill="none" x1="108" x2="140" y1="196" y2="260"/>
<line stroke="#000" stroke-width="3" stroke-linejoin="round" fill="none" x1="12" x2="140" y1="196" y2="196"/>
<path stroke="#000" stroke-width="3" stroke-linejoin="round" d="M 44.0,260.0 A 16.0,16.0 0 1 0 12.0,260.0" fill="none"/>
<path stroke="#000" stroke-width="3" stroke-linejoin="round" d="M 108.0,260.0 A 16.0,16.0 0 1 0 76.0,260.0" fill="none"/>
<path stroke="#000" stroke-width="3" stroke-linejoin="round" d="M 172.0,260.0 A 16.0,16.0 0 1 0 140.0,260.0" fill="none"/>
<path stroke="#000" stroke-width="3" stroke-linejoin="round" d="M 268.0,164.0 A 32.0,32.0 0 1 0 204.0,164.0" fill="none"/>
<path stroke="#000" stroke-width="3" stroke-linejoin="round" d="M 203.75343867296755,259.5616687519423 A 128.0,128.0 0 0 0 267.99612444498604,163.9995117411006" fill="none"/>
<path stroke="#000" stroke-width="3" stroke-linejoin="round" d="M 315.59009742330267,163.59009742330267 A 22.5,22.5 0 0 0 316.0948021125589,195.89908162211472" fill="none"/>
<path stroke="#000" stroke-width="3" stroke-linejoin="round" d="M 379.59009742330267,163.59009742330267 A 22.5,22.5 0 0 0 380.0948021125589,195.89908162211472" fill="none"/>
<path stroke="#000" stroke-width="3" stroke-linejoin="round" d="M 347.59009742330267,163.59009742330267 A 22.5,22.5 0 0 0 348.0948021125589,195.89908162211472" fill="none"/>
</g>
</svg>
