<?xml version="1.0" encoding="UTF-8" standalone="no"?>
<!DOCTYPE svg PUBLIC "-//W3C//DTD SVG 1.0//EN" "http://www.w3.org/TR/2001/REC-SVG-20010904/DTD/svg10.dtd">
<svg xmlns="http://www.w3.org/2000/svg" width="1192" height="644">
<style type="text/css">
.brush0 { fill: rgb(255,255,255); }
.pen0 { stroke: rgb(0,0,0); stroke-width: 1; stroke-linejoin: round; }
.font0 { font-size: 13px; font-family: "MS Sans Serif"; }
.pen1 { stroke: rgb(0,0,0); stroke-width: 14; stroke-linejoin: round; }
.brush1 { fill: none; }
.brush2 { fill: rgb(0,0,0); }
.font1 { font-weight: bold; font-size: 20px; font-family: System, sans-serif; }
</style>
<g>
<line stroke="#000" stroke-width="3" stroke-linejoin="round" fill="none" x1="660" x2="724" y1="514" y2="386"/>
<line stroke="#000" stroke-width="3" stroke-linejoin="round" fill="none" x1="724" x2="788" y1="386" y2="514"/>
<line stroke="#000" stroke-width="3" stroke-linejoin="round" fill="none" x1="788" x2="1044" y1="386" y2="386"/>
<line stroke="#000" stroke-width="3" stroke-linejoin="round" fill="none" x1="1044" x2="980" y1="386" y2="322"/>
<line stroke="#000" stroke-width="3" stroke-linejoin="round" fill="none" x1="1044" x2="980" y1="386" y2="450"/>
<line stroke="#000" stroke-width="3" stroke-linejoin="round" fill="none" x1="1108" x2="1108" y1="322" y2="418"/>
<ellipse class="pen1 brush2" cx="1108" cy="449" rx="1" ry="1"/>
<circle stroke="#000" stroke-width="3" stroke-linejoin="round" cx="84.0" cy="322.0" fill="none" r="64.0"/>
<circle stroke="#000" stroke-width="3" stroke-linejoin="round" cx="340.0" cy="386.0" fill="none" r="128.0"/>
<circle stroke="#000" stroke-width="3" stroke-linejoin="round" cx="340.0" cy="386.0" fill="none" r="64.0"/>
<line stroke="#000" stroke-width="3" stroke-linejoin="round" fill="none" x1="212" x2="468" y1="258" y2="258"/>
<line stroke="#000" stroke-width="3" stroke-linejoin="round" fill="none" x1="468" x2="468" y1="258" y2="514"/>
<line stroke="#000" stroke-width="3" stroke-linejoin="round" fill="none" x1="468" x2="212" y1="514" y2="514"/>
<line stroke="#000" stroke-width="3" stroke-linejoin="round" fill="none" x1="212" x2="212" y1="514" y2="258"/>
<line stroke="#000" stroke-width="3" stroke-linejoin="round" fill="none" x1="20" x2="20" y1="322" y2="450"/>
<line stroke="#000" stroke-width="3" stroke-linejoin="round" fill="none" x1="148" x2="148" y1="322" y2="450"/>
<path stroke="#000" stroke-width="3" stroke-linejoin="round" d="M 20.0,450.0 A 64.0,64.0 0 0 0 148.0,450.0" fill="none"/>
<ellipse class="pen1 brush1" cx="340" cy="386" rx="1" ry="1"/>
<line stroke="#000" stroke-width="3" stroke-linejoin="round" fill="none" x1="468" x2="596" y1="386" y2="386"/>
<line stroke="#000" stroke-width="3" stroke-linejoin="round" fill="none" x1="532" x2="596" y1="322" y2="386"/>
<line stroke="#000" stroke-width="3" stroke-linejoin="round" fill="none" x1="596" x2="532" y1="386" y2="450"/>
</g>
</svg>
