<?xml version="1.0" encoding="UTF-8" standalone="no"?>
<!DOCTYPE svg PUBLIC "-//W3C//DTD SVG 1.0//EN" "http://www.w3.org/TR/2001/REC-SVG-20010904/DTD/svg10.dtd">
<svg xmlns="http://www.w3.org/2000/svg" width="216" height="328">
<style type="text/css">
.brush0 { fill: rgb(255,255,255); }
.pen0 { stroke: rgb(0,0,0); stroke-width: 1; stroke-linejoin: round; }
.font0 { font-size: 11px; font-family: "MS Sans Serif"; }
.pen1 { stroke: rgb(0,0,0); stroke-width: 7; stroke-linejoin: round; }
.brush1 { fill: none; }
.font1 { font-weight: bold; font-size: 16px; font-family: System, sans-serif; }
</style>
<g>
<path stroke="#000" stroke-width="3" stroke-linejoin="round" d="M 44.000000000000014,132.0 A 80.0,80.0 0 0 0 44.000000000000014,260.0" fill="none"/>
<line stroke="#000" stroke-width="3" stroke-linejoin="round" fill="none" x1="44" x2="172" y1="132" y2="132"/>
<line stroke="#000" stroke-width="3" stroke-linejoin="round" fill="none" x1="44" x2="172" y1="260" y2="260"/>
<path stroke="#000" stroke-width="3" stroke-linejoin="round" d="M 172.0,260.0 A 80.0,80.0 0 0 0 172.0,132.0" fill="none"/>
<path stroke="#000" stroke-width="3" stroke-linejoin="round" d="M 75.59009742330268,259.59009742330267 A 22.5,22.5 0 0 0 76.09480211255891,291.8990816221147" fill="none"/>
<path stroke="#000" stroke-width="3" stroke-linejoin="round" d="M 107.59009742330268,259.59009742330267 A 22.5,22.5 0 0 0 108.09480211255891,291.8990816221147" fill="none"/>
<path stroke="#000" stroke-width="3" stroke-linejoin="round" d="M 139.5900974233027,259.59009742330267 A 22.5,22.5 0 0 0 140.0948021125589,291.8990816221147" fill="none"/>
<line stroke="#000" stroke-width="3" stroke-linejoin="round" fill="none" x1="188" x2="156" y1="260" y2="292"/>
<line stroke="#000" stroke-width="3" stroke-linejoin="round" fill="none" x1="156" x2="188" y1="292" y2="324"/>
</g>
</svg>
