<?xml version="1.0" encoding="UTF-8" standalone="no"?>
<!DOCTYPE svg PUBLIC "-//W3C//DTD SVG 1.0//EN" "http://www.w3.org/TR/2001/REC-SVG-20010904/DTD/svg10.dtd">
<svg xmlns="http://www.w3.org/2000/svg" width="392" height="328">
<style type="text/css">
.brush0 { fill: rgb(255,255,255); }
.pen0 { stroke: rgb(0,0,0); stroke-width: 1; stroke-linejoin: round; }
.font0 { font-size: 11px; font-family: "MS Sans Serif"; }
.pen1 { stroke: rgb(0,0,0); stroke-width: 7; stroke-linejoin: round; }
.brush1 { fill: none; }
.font1 { font-weight: bold; font-size: 16px; font-family: System, sans-serif; }
</style>
<g>
<path stroke="#000" stroke-width="3" stroke-linejoin="round" d="M 76.0,164.0 A 32.0,32.0 0 1 0 12.0,164.0" fill="none"/>
<path stroke="#000" stroke-width="3" stroke-linejoin="round" d="M 11.815904242817567,259.6701004031291 A 127.5,128.0 0 0 0 75.99998480152138,163.99999807766278" fill="none"/>
<circle stroke="#000" stroke-width="3" stroke-linejoin="round" cx="140.0" cy="228.0" fill="none" r="32.0"/>
<line stroke="#000" stroke-width="3" stroke-linejoin="round" fill="none" x1="172" x2="172" y1="132" y2="228"/>
<path stroke="#000" stroke-width="3" stroke-linejoin="round" d="M 219.5900974233027,163.59009742330267 A 22.5,22.5 0 0 0 220.0948021125589,195.89908162211472" fill="none"/>
<path stroke="#000" stroke-width="3" stroke-linejoin="round" d="M 283.59009742330267,163.59009742330267 A 22.5,22.5 0 0 0 284.0948021125589,195.89908162211472" fill="none"/>
<path stroke="#000" stroke-width="3" stroke-linejoin="round" d="M 251.5900974233027,163.59009742330267 A 22.5,22.5 0 0 0 252.0948021125589,195.89908162211472" fill="none"/>
<line stroke="#000" stroke-width="3" stroke-linejoin="round" fill="none" x1="348" x2="316" y1="132" y2="164"/>
<line stroke="#000" stroke-width="3" stroke-linejoin="round" fill="none" x1="348" x2="380" y1="132" y2="164"/>
<line stroke="#000" stroke-width="3" stroke-linejoin="round" fill="none" x1="348" x2="348" y1="132" y2="260"/>
</g>
</svg>
