<?xml version="1.0" encoding="UTF-8" standalone="no"?>
<!DOCTYPE svg PUBLIC "-//W3C//DTD SVG 1.0//EN" "http://www.w3.org/TR/2001/REC-SVG-20010904/DTD/svg10.dtd">
<svg xmlns="http://www.w3.org/2000/svg" width="1000" height="644">
<style type="text/css">
.brush0 { fill: rgb(255,255,255); }
.pen0 { stroke: rgb(0,0,0); stroke-width: 1; stroke-linejoin: round; }
.font0 { font-size: 13px; font-family: "MS Sans Serif"; }
.pen1 { stroke: rgb(0,0,0); stroke-width: 14; stroke-linejoin: round; }
.brush1 { fill: none; }
.brush2 { fill: rgb(0,0,0); }
.font1 { font-weight: bold; font-size: 20px; font-family: System, sans-serif; }
</style>
<g>
<line stroke="#000" stroke-width="3" stroke-linejoin="round" fill="none" x1="20" x2="148" y1="514" y2="386"/>
<line stroke="#000" stroke-width="3" stroke-linejoin="round" fill="none" x1="148" x2="276" y1="386" y2="514"/>
<line stroke="#000" stroke-width="3" stroke-linejoin="round" fill="none" x1="340" x2="404" y1="514" y2="386"/>
<line stroke="#000" stroke-width="3" stroke-linejoin="round" fill="none" x1="404" x2="468" y1="386" y2="514"/>
<line stroke="#000" stroke-width="3" stroke-linejoin="round" fill="none" x1="468" x2="532" y1="514" y2="386"/>
<line stroke="#000" stroke-width="3" stroke-linejoin="round" fill="none" x1="532" x2="596" y1="386" y2="514"/>
<line stroke="#000" stroke-width="3" stroke-linejoin="round" fill="none" x1="724" x2="852" y1="386" y2="386"/>
<line stroke="#000" stroke-width="3" stroke-linejoin="round" fill="none" x1="852" x2="788" y1="386" y2="514"/>
<line stroke="#000" stroke-width="3" stroke-linejoin="round" fill="none" x1="788" x2="724" y1="514" y2="386"/>
<line stroke="#000" stroke-width="3" stroke-linejoin="round" fill="none" x1="852" x2="980" y1="386" y2="386"/>
<line stroke="#000" stroke-width="3" stroke-linejoin="round" fill="none" x1="980" x2="916" y1="386" y2="514"/>
<line stroke="#000" stroke-width="3" stroke-linejoin="round" fill="none" x1="916" x2="852" y1="514" y2="386"/>
<line stroke="#000" stroke-width="3" stroke-linejoin="round" fill="none" x1="340" x2="596" y1="386" y2="386"/>
<line stroke="#000" stroke-width="3" stroke-linejoin="round" fill="none" x1="276" x2="276" y1="386" y2="514"/>
<path stroke="#000" stroke-width="3" stroke-linejoin="round" d="M 655.0556448969911,531.0877757244155 A 32.0,32.0 0 0 0 660.0,514.0" fill="none"/>
<ellipse class="pen1 brush2" cx="653" cy="513" rx="6" ry="6"/>
</g>
</svg>
