<?xml version="1.0" encoding="UTF-8" standalone="no"?>
<!DOCTYPE svg PUBLIC "-//W3C//DTD SVG 1.0//EN" "http://www.w3.org/TR/2001/REC-SVG-20010904/DTD/svg10.dtd">
<svg xmlns="http://www.w3.org/2000/svg" width="600" height="328">
<style type="text/css">
.brush0 { fill: rgb(255,255,255); }
.pen0 { stroke: rgb(0,0,0); stroke-width: 1; stroke-linejoin: round; }
.font0 { font-size: 11px; font-family: "MS Sans Serif"; }
.pen1 { stroke: rgb(0,0,0); stroke-width: 7; stroke-linejoin: round; }
.brush1 { fill: none; }
.font1 { font-weight: bold; font-size: 16px; font-family: System, sans-serif; }
</style>
<g>
<line stroke="#000" stroke-width="3" stroke-linejoin="round" fill="none" x1="172" x2="236" y1="196" y2="196"/>
<circle stroke="#000" stroke-width="3" stroke-linejoin="round" cx="300.0" cy="196.0" fill="none" r="32.0"/>
<line stroke="#000" stroke-width="3" stroke-linejoin="round" fill="none" x1="268" x2="332" y1="260" y2="260"/>
<path stroke="#000" stroke-width="3" stroke-linejoin="round" d="M 140.0,196.0 A 64.0,64.0 0 1 0 12.0,196.0" fill="none"/>
<line stroke="#000" stroke-width="3" stroke-linejoin="round" fill="none" x1="12" x2="140" y1="196" y2="196"/>
<line stroke="#000" stroke-width="3" stroke-linejoin="round" fill="none" x1="140" x2="108" y1="196" y2="164"/>
<line stroke="#000" stroke-width="3" stroke-linejoin="round" fill="none" x1="140" x2="108" y1="196" y2="228"/>
<line stroke="#000" stroke-width="3" stroke-linejoin="round" fill="none" x1="140" x2="140" y1="132" y2="260"/>
<path stroke="#000" stroke-width="3" stroke-linejoin="round" d="M 364.0,260.0 A 64.0,64.0 0 0 0 364.0,132.0" fill="none"/>
<line stroke="#000" stroke-width="3" stroke-linejoin="round" fill="none" x1="364" x2="364" y1="132" y2="260"/>
<line stroke="#000" stroke-width="3" stroke-linejoin="round" fill="none" x1="476" x2="476" y1="164" y2="228"/>
<line stroke="#000" stroke-width="3" stroke-linejoin="round" fill="none" x1="460" x2="492" y1="180" y2="212"/>
<line stroke="#000" stroke-width="3" stroke-linejoin="round" fill="none" x1="492" x2="460" y1="180" y2="212"/>
<path stroke="#000" stroke-width="3" stroke-linejoin="round" d="M 524.0,260.0 A 64.0,64.0 0 0 0 524.0,132.0" fill="none"/>
<path stroke="#000" stroke-width="3" stroke-linejoin="round" d="M 524.0,260.0 A 80.0,80.0 0 0 0 524.0,132.0" fill="none"/>
</g>
</svg>
