<?xml version="1.0" encoding="UTF-8" standalone="no"?>
<!DOCTYPE svg PUBLIC "-//W3C//DTD SVG 1.0//EN" "http://www.w3.org/TR/2001/REC-SVG-20010904/DTD/svg10.dtd">
<svg xmlns="http://www.w3.org/2000/svg" width="376" height="328">
<style type="text/css">
.brush0 { fill: rgb(255,255,255); }
.pen0 { stroke: rgb(0,0,0); stroke-width: 1; stroke-linejoin: round; }
.font0 { font-size: 11px; font-family: "MS Sans Serif"; }
.pen1 { stroke: rgb(0,0,0); stroke-width: 7; stroke-linejoin: round; }
.brush1 { fill: none; }
.font1 { font-weight: bold; font-size: 16px; font-family: System, sans-serif; }
</style>
<g>
<line stroke="#000" stroke-width="3" stroke-linejoin="round" fill="none" x1="12" x2="76" y1="132" y2="132"/>
<line stroke="#000" stroke-width="3" stroke-linejoin="round" fill="none" x1="76" x2="76" y1="132" y2="260"/>
<line stroke="#000" stroke-width="3" stroke-linejoin="round" fill="none" x1="76" x2="12" y1="260" y2="260"/>
<line stroke="#000" stroke-width="3" stroke-linejoin="round" fill="none" x1="12" x2="12" y1="260" y2="132"/>
<line stroke="#000" stroke-width="3" stroke-linejoin="round" fill="none" x1="76" x2="140" y1="132" y2="132"/>
<line stroke="#000" stroke-width="3" stroke-linejoin="round" fill="none" x1="140" x2="140" y1="132" y2="260"/>
<line stroke="#000" stroke-width="3" stroke-linejoin="round" fill="none" x1="140" x2="76" y1="260" y2="260"/>
<line stroke="#000" stroke-width="3" stroke-linejoin="round" fill="none" x1="76" x2="76" y1="260" y2="132"/>
<ellipse class="pen1 brush1" cx="44" cy="196" rx="1" ry="1"/>
<ellipse class="pen1 brush1" cx="108" cy="196" rx="1" ry="1"/>
<line stroke="#000" stroke-width="3" stroke-linejoin="round" fill="none" x1="204" x2="172" y1="164" y2="196"/>
<line stroke="#000" stroke-width="3" stroke-linejoin="round" fill="none" x1="172" x2="204" y1="196" y2="228"/>
<line stroke="#000" stroke-width="3" stroke-linejoin="round" fill="none" x1="332" x2="364" y1="164" y2="196"/>
<line stroke="#000" stroke-width="3" stroke-linejoin="round" fill="none" x1="364" x2="332" y1="196" y2="228"/>
<line stroke="#000" stroke-width="3" stroke-linejoin="round" fill="none" x1="236" x2="300" y1="164" y2="164"/>
<line stroke="#000" stroke-width="3" stroke-linejoin="round" fill="none" x1="300" x2="300" y1="164" y2="228"/>
<line stroke="#000" stroke-width="3" stroke-linejoin="round" fill="none" x1="300" x2="236" y1="228" y2="228"/>
<line stroke="#000" stroke-width="3" stroke-linejoin="round" fill="none" x1="236" x2="236" y1="228" y2="164"/>
<path stroke="#000" stroke-width="3" stroke-linejoin="round" d="M 269.2825294592593,194.8555890978917 A 45.5,45.0 0 0 0 202.19599593641186,194.33917086209348" fill="none"/>
<path stroke="#000" stroke-width="3" stroke-linejoin="round" d="M 267.8332155216319,196.1720792237131 A 45.5,45.5 0 0 0 331.6733585439879,195.67335854398792" fill="none"/>
</g>
</svg>
