<?xml version="1.0" encoding="UTF-8" standalone="no"?>
<!DOCTYPE svg PUBLIC "-//W3C//DTD SVG 1.0//EN" "http://www.w3.org/TR/2001/REC-SVG-20010904/DTD/svg10.dtd">
<svg xmlns="http://www.w3.org/2000/svg" width="360" height="328">
<style type="text/css">
.brush0 { fill: rgb(255,255,255); }
.pen0 { stroke: rgb(0,0,0); stroke-width: 1; stroke-linejoin: round; }
.font0 { font-size: 13px; font-family: "MS Sans Serif"; }
.pen1 { stroke: rgb(0,0,0); stroke-width: 7; stroke-linejoin: round; }
.brush1 { fill: none; }
.font1 { font-weight: bold; font-size: 20px; font-family: System, sans-serif; }
</style>
<g>
<line stroke="#000" stroke-width="3" stroke-linejoin="round" fill="none" x1="76" x2="204" y1="132" y2="132"/>
<line stroke="#000" stroke-width="3" stroke-linejoin="round" fill="none" x1="204" x2="204" y1="132" y2="260"/>
<line stroke="#000" stroke-width="3" stroke-linejoin="round" fill="none" x1="204" x2="76" y1="260" y2="260"/>
<line stroke="#000" stroke-width="3" stroke-linejoin="round" fill="none" x1="76" x2="76" y1="260" y2="132"/>
<line stroke="#000" stroke-width="3" stroke-linejoin="round" fill="none" x1="12" x2="140" y1="196" y2="196"/>
<line stroke="#000" stroke-width="3" stroke-linejoin="round" fill="none" x1="140" x2="108" y1="196" y2="164"/>
<line stroke="#000" stroke-width="3" stroke-linejoin="round" fill="none" x1="140" x2="108" y1="196" y2="228"/>
<line stroke="#000" stroke-width="3" stroke-linejoin="round" fill="none" x1="252" x2="252" y1="164" y2="196"/>
<circle stroke="#000" stroke-width="3" stroke-linejoin="round" cx="252.0" cy="228.0" fill="none" r="16.0"/>
<path stroke="#000" stroke-width="3" stroke-linejoin="round" d="M 316.0,260.0 A 80.0,80.0 0 0 0 316.0,132.0" fill="none"/>
<path stroke="#000" stroke-width="3" stroke-linejoin="round" d="M 315.6733585439879,227.67335854398792 A 45.5,45.5 0 0 0 315.6733585439879,163.32664145601208" fill="none"/>
<path stroke="#000" stroke-width="3" stroke-linejoin="round" d="M 299.40990257669733,211.4099025766973 A 22.5,22.5 0 0 0 299.40990257669733,179.5900974233027" fill="none"/>
<line stroke="#000" stroke-width="3" stroke-linejoin="round" fill="none" x1="124" x2="156" y1="68" y2="68"/>
<line stroke="#000" stroke-width="3" stroke-linejoin="round" fill="none" x1="156" x2="156" y1="68" y2="100"/>
<line stroke="#000" stroke-width="3" stroke-linejoin="round" fill="none" x1="156" x2="124" y1="100" y2="100"/>
<line stroke="#000" stroke-width="3" stroke-linejoin="round" fill="none" x1="124" x2="124" y1="100" y2="68"/>
</g>
</svg>
