<?xml version="1.0" encoding="UTF-8" standalone="no"?>
<!DOCTYPE svg PUBLIC "-//W3C//DTD SVG 1.0//EN" "http://www.w3.org/TR/2001/REC-SVG-20010904/DTD/svg10.dtd">
<svg xmlns="http://www.w3.org/2000/svg" width="744" height="644">
<style type="text/css">
.brush0 { fill: rgb(255,255,255); }
.pen0 { stroke: rgb(0,0,0); stroke-width: 1; stroke-linejoin: round; }
.font0 { font-size: 13px; font-family: "MS Sans Serif"; }
.pen1 { stroke: rgb(0,0,0); stroke-width: 14; stroke-linejoin: round; }
.brush1 { fill: none; }
.brush2 { fill: rgb(0,0,0); }
.font1 { font-weight: bold; font-size: 20px; font-family: System, sans-serif; }
</style>
<g>
<path stroke="#000" stroke-width="3" stroke-linejoin="round" d="M 20.98063523834881,321.8762117253366 A 254.5,256.0 0 0 0 148.54833766088825,513.0212937367412" fill="none"/>
<path stroke="#000" stroke-width="3" stroke-linejoin="round" d="M 148.0,322.0 A 64.0,64.0 0 1 0 20.0,322.0" fill="none"/>
<path stroke="#000" stroke-width="3" stroke-linejoin="round" d="M 276.0,322.0 A 64.0,64.0 0 1 0 148.0,322.0" fill="none"/>
<path stroke="#000" stroke-width="3" stroke-linejoin="round" d="M 147.80953924225753,513.657323616592 A 255.5,256.0 0 0 0 276.980393488888,322.1242478877007" fill="none"/>
<line stroke="#000" stroke-width="3" stroke-linejoin="round" fill="none" x1="340" x2="340" y1="322" y2="418"/>
<ellipse class="pen1 brush2" cx="340" cy="449" rx="1" ry="1"/>
<line stroke="#000" stroke-width="3" stroke-linejoin="round" fill="none" x1="404" x2="404" y1="322" y2="418"/>
<ellipse class="pen1 brush2" cx="404" cy="449" rx="1" ry="1"/>
<line stroke="#000" stroke-width="3" stroke-linejoin="round" fill="none" x1="468" x2="532" y1="514" y2="386"/>
<line stroke="#000" stroke-width="3" stroke-linejoin="round" fill="none" x1="532" x2="596" y1="386" y2="514"/>
<line stroke="#000" stroke-width="3" stroke-linejoin="round" fill="none" x1="660" x2="724" y1="386" y2="514"/>
<line stroke="#000" stroke-width="3" stroke-linejoin="round" fill="none" x1="724" x2="596" y1="514" y2="514"/>
<line stroke="#000" stroke-width="3" stroke-linejoin="round" fill="none" x1="596" x2="660" y1="514" y2="386"/>
</g>
</svg>
